<?xml version="1.0" standalone="no"?>
<!DOCTYPE svg PUBLIC "-//W3C//DTD SVG 20010904//EN" "http://www.w3.org/TR/2001/REC-SVG-20010904/DTD/svg10.dtd">
<svg version="1.0" xmlns="http://www.w3.org/2000/svg" width="60px" height="60px" viewBox="0 0 1046.000000 1047.000000"
  preserveAspectRatio="xMidYMid meet">

  <g transform="translate(0.000000,1047.000000) scale(0.100000,-0.100000)" fill="#ffffff" stroke="none">
    <path d="M5065 8319 c-634 -75 -1147 -548 -1282 -1179 -26 -121 -26 -459 0
-577 43 -196 136 -409 248 -568 121 -170 310 -337 493 -436 l79 -42 -109 -32
c-383 -110 -731 -303 -1044 -580 -387 -342 -686 -840 -809 -1346 -49 -204 -81
-465 -81 -666 l0 -73 2672 0 2671 0 -6 178 c-22 601 -219 1134 -593 1602 -88
109 -285 306 -394 394 -277 222 -611 396 -932 489 l-117 33 62 34 c641 348
935 1088 705 1774 -75 225 -202 421 -384 596 -205 196 -448 322 -731 379 -119
25 -332 34 -448 20z m381 -224 c525 -92 937 -505 1029 -1031 19 -111 19 -307
0 -420 -75 -435 -364 -795 -769 -960 -702 -286 -1509 118 -1696 850 -45 176
-51 406 -15 571 110 508 509 898 1014 989 105 19 328 20 437 1z m24 -2730
c105 -9 318 -49 425 -80 567 -162 1053 -517 1383 -1010 150 -224 294 -564 351
-825 24 -112 51 -312 51 -376 l0 -44 -2450 0 -2450 0 0 33 c0 64 31 284 56
396 200 896 894 1610 1789 1841 258 67 559 90 845 65z" />
  </g>
</svg>
