<svg width="252" height="97" viewBox="0 0 252 97" fill="none" xmlns="http://www.w3.org/2000/svg">
<path fill-rule="evenodd" clip-rule="evenodd" d="M23.0448 0.752421C11.9562 1.62691 3.61608 7.76107 0.953712 17.0001C-0.553653 22.231 -0.255603 28.6193 1.71595 33.3389C2.82873 36.0025 4.16106 37.8876 6.42313 39.998C9.56041 42.9251 13.1418 44.6885 17.9688 45.6827C20.9374 46.2942 29.0863 46.3305 32.2323 45.7465C33.966 45.4246 36.8692 44.6498 37.0889 44.4504C37.1243 44.4183 36.7813 42.6259 36.3267 40.4674L35.5006 36.5426L33.7301 37.0203C29.6443 38.1229 24.4501 38.2475 21.2779 37.319C16.3895 35.8881 13.2105 32.7997 11.8663 28.1757C11.2974 26.218 11.3095 20.7706 11.8871 18.8207C13.3346 13.9354 16.8044 10.7198 22.0082 9.44158C25.3297 8.62557 30.3073 8.90113 34.0779 10.1098C34.8371 10.3531 35.4524 10.4488 35.5266 10.3348C35.5975 10.2257 36.1135 8.44888 36.6731 6.38609C37.8254 2.13974 37.9041 2.49183 35.6555 1.83442C32.4979 0.911034 27.0075 0.439877 23.0448 0.752421ZM189.929 0.765818C187.241 0.979284 183.956 1.71728 181.565 2.6445C175.833 4.86803 171.137 9.25194 168.95 14.4223C166.436 20.3634 166.452 28.2329 168.988 33.745C172.232 40.7953 178.596 44.9849 187.678 46.0499C190.704 46.4047 197.024 46.1896 199.804 45.637C202.184 45.1639 204.193 44.5843 204.193 44.3706C204.193 44.2922 203.834 42.506 203.396 40.4011C202.957 38.2962 202.598 36.5553 202.597 36.5324C202.596 36.5094 202.035 36.6701 201.35 36.8898C197.655 38.074 191.57 38.2737 188.332 37.3167C185.127 36.3697 182.943 34.9586 181.241 32.7372C179.126 29.9759 178.272 26.8741 178.464 22.6546C178.731 16.8104 181.264 12.7256 186.005 10.496C190.005 8.61494 195.991 8.46229 201.132 10.1098C202.059 10.4071 202.498 10.4628 202.608 10.2974C202.694 10.1679 203.214 8.39339 203.764 6.3542C204.901 2.13379 204.995 2.50289 202.605 1.80381C199.452 0.881701 194.044 0.438816 189.929 0.765818ZM44.2136 23.4982V45.6102H59.0476H73.8816V41.4665V37.3229L64.4677 37.2674L55.0538 37.2119L54.9954 19.2991L54.9372 1.38623H49.5753H44.2136V23.4982ZM80.2717 23.4982V45.6102H85.6348H90.9978V23.4982V1.38623H85.6348H80.2717V23.4982ZM100.355 23.4982V45.6102H105.413H110.471L110.319 32.3749C110.235 25.0956 110.115 17.7523 110.052 16.0567L109.938 12.9738L111.011 15.0999C113.676 20.3785 117.8 27.7246 122.917 36.3083L128.463 45.6102H134.15H139.836V23.4982V1.38623H134.929H130.023L130.028 12.1764C130.032 21.9291 130.111 24.5424 130.592 30.8334L130.738 32.747L129.312 29.6641C127.051 24.7771 124.144 19.5823 118.396 10.1566L113.048 1.38623H106.701H100.355V23.4982ZM149.193 23.4982V45.6102H154.556H159.919V23.4982V1.38623H154.556H149.193V23.4982ZM215.855 23.2324C211.915 35.248 208.644 45.1984 208.586 45.3444C208.503 45.5526 209.698 45.6102 214.089 45.6102H219.699L220.046 44.494C220.237 43.8799 220.992 41.3685 221.723 38.9128L223.054 34.4479L229.884 34.3939L236.714 34.3399L238.515 39.975L240.317 45.6102H246.104C249.286 45.6102 251.89 45.5572 251.89 45.4926C251.89 45.4014 238.504 5.05767 237.485 2.07723L237.249 1.38623H230.133H223.018L215.855 23.2324ZM230.769 12.5802C231.312 14.5507 232.486 18.4758 233.379 21.3023C234.272 24.129 235.002 26.4972 235.002 26.5646C235.002 26.6322 232.691 26.6874 229.867 26.6874C227.043 26.6874 224.732 26.657 224.732 26.6196C224.732 26.5824 225.485 24.023 226.405 20.9322C227.325 17.8414 228.428 13.8604 228.855 12.0855C229.283 10.3105 229.667 8.88964 229.708 8.92791C229.75 8.96618 230.227 10.6097 230.769 12.5802ZM209.319 51.4039C208.983 52.8716 208.413 52.9592 206.314 51.8657C202.63 49.9465 200.018 51.206 199.686 55.0618L199.566 56.4536H201.159H202.751L203.024 55.6052C203.409 54.4097 203.956 54.3457 205.867 55.2738C207.145 55.8944 207.665 56.0283 208.795 56.0283C211.21 56.0283 212.239 54.9638 212.544 52.1481L212.7 50.7129H211.089H209.478L209.319 51.4039ZM9.06838 57.8623C5.4135 58.5202 2.56971 60.3076 1.2723 62.7631C0.654521 63.9323 0.51919 64.4592 0.443194 65.9942C0.327032 68.3402 0.862882 69.7866 2.44191 71.3891C3.84429 72.8124 5.46964 73.7175 8.92529 74.9998C13.3118 76.6271 14.2594 77.4372 14.0266 79.3611C13.7883 81.3306 11.668 82.3444 8.27761 82.1099C6.28141 81.9719 3.5896 81.3419 2.22465 80.693L1.36131 80.2826L0.64562 82.945C0.251948 84.4095 -0.0146069 85.6911 0.0531731 85.7936C0.279791 86.1351 2.67628 86.855 4.65834 87.1771C5.73597 87.3521 7.63564 87.4954 8.87964 87.4954C14.6955 87.4954 18.7319 85.6148 20.517 82.0737C21.2001 80.7187 21.2674 80.4038 21.2702 78.5564C21.2727 76.6915 21.2126 76.413 20.5269 75.1152C19.31 72.8128 16.9754 71.1867 12.7666 69.7108C10.6574 68.9711 8.79908 68.0504 8.19386 67.4455C6.98386 66.236 7.47498 64.3626 9.21261 63.5592C10.6255 62.9058 14.3331 63.0051 16.6862 63.7595C17.6753 64.0765 18.511 64.3084 18.5432 64.275C18.6505 64.1636 20.0227 59.5216 20.0227 59.2703C20.0227 59.1344 19.1754 58.7691 18.14 58.4583C16.5274 57.9742 15.7823 57.8834 12.948 57.8264C11.128 57.7899 9.38218 57.806 9.06838 57.8623ZM177.492 58.0473C171.16 59.2343 166.729 63.0487 165.141 68.6789C164.472 71.0534 164.47 75.0242 165.137 77.3536C166.504 82.1302 169.885 85.3599 175.062 86.8365C175.923 87.082 176.873 87.2828 177.173 87.2828C177.474 87.2828 177.72 87.3368 177.72 87.4031C177.72 87.4692 177.359 88.2519 176.917 89.1421C176.068 90.8534 176.105 91.0996 177.214 91.1067C178.026 91.1118 179.255 91.6662 179.535 92.1548C180.146 93.2177 178.769 93.8872 176.854 93.459C176.263 93.327 175.685 93.2177 175.569 93.2162C175.416 93.2139 174.56 95.279 174.528 95.7283C174.526 95.7542 175.106 95.9328 175.816 96.1252C177.682 96.6306 180.486 96.4669 181.817 95.7746C183.267 95.0202 183.73 94.3271 183.834 92.7553C183.908 91.6342 183.839 91.3135 183.386 90.6846C183.092 90.2753 182.403 89.7293 181.855 89.4714C180.565 88.864 180.597 88.9118 181.001 88.184C181.33 87.5908 181.443 87.5513 183.129 87.4395C184.97 87.3172 187.859 86.7744 188.429 86.4438C188.76 86.2511 188.657 85.3244 187.951 82.1413L187.73 81.146L186.811 81.448C183.977 82.3796 179.571 82.2835 177.117 81.2366C174.723 80.2159 172.852 77.9611 172.239 75.3604C171.819 73.577 172.046 70.0356 172.679 68.5191C173.653 66.1822 175.621 64.4422 178.29 63.5568C179.983 62.9955 184.173 63.0414 186.154 63.6429C186.964 63.8891 187.662 64.0579 187.705 64.0182C187.793 63.9365 189.131 59.2409 189.131 59.0151C189.131 58.821 187.06 58.2357 185.38 57.9553C183.571 57.6531 179.33 57.7027 177.492 58.0473ZM232.999 58.0528C229.366 58.7878 225.763 61.2784 223.884 64.3537C220.896 69.2432 220.841 76.1217 223.75 81.1709C224.77 82.9416 227.29 85.1709 229.297 86.0777C231.721 87.1733 233.305 87.4954 236.269 87.4954C240.786 87.4954 243.833 86.4393 246.74 83.8661C248.679 82.1507 249.949 80.1172 250.788 77.384C251.474 75.152 251.544 70.0954 250.918 67.9348C249.419 62.755 245.459 59.0456 240.365 58.049C238.396 57.664 234.912 57.6659 232.999 58.0528ZM60.531 58.1651C59.4014 58.271 58.2461 58.4092 57.9636 58.4725L57.4501 58.5878V72.829V87.0702H60.9875H64.5248V81.9674V76.8646H66.9306C71.6887 76.8646 75.1053 75.7541 77.3756 73.4696C79.2618 71.5716 79.6909 70.3909 79.6966 67.0843C79.7007 64.6552 79.65 64.3261 79.1055 63.2572C77.8944 60.8798 75.7233 59.2769 72.6265 58.4743C70.9874 58.0494 63.7457 57.8643 60.531 58.1651ZM112.222 58.1768C111.029 58.274 109.823 58.406 109.54 58.4707L109.027 58.5878V72.829V87.0702H112.45H115.873V81.4358V75.8015H117.53C121.363 75.8015 122.105 76.5312 123.5 81.6744C123.94 83.2973 124.494 85.1513 124.73 85.7945L125.159 86.9638L128.843 87.0223L132.526 87.0806L132.285 86.4908C132.152 86.1663 131.491 84.0155 130.815 81.7112C129.248 76.3684 128.519 74.9842 126.756 74.0034L125.885 73.5191L127.105 72.8779C128.636 72.0725 129.904 70.7768 130.667 69.236C131.172 68.2182 131.257 67.7574 131.244 66.1275C131.226 63.9914 130.873 62.8552 129.803 61.5006C128.383 59.7015 125.957 58.6056 122.418 58.1645C120.381 57.9104 115.42 57.9166 112.222 58.1768ZM26.0111 67.9879C26.0965 77.2594 26.1298 77.9164 26.594 79.4827C27.875 83.8056 30.6761 86.4572 34.8109 87.2604C36.5517 87.5987 40.8673 87.5474 42.5949 87.1679C46.8057 86.2433 49.6034 83.576 50.8786 79.2701C51.3421 77.7055 51.3762 77.0419 51.4617 67.8816L51.5526 58.1545H48.0097H44.4671L44.3909 67.8816C44.3037 79.0367 44.2921 79.112 42.3924 80.9328C41.5469 81.7433 41.1245 81.9702 40.0487 82.1908C36.5303 82.9131 33.927 80.9496 33.2693 77.0772C33.1365 76.295 33.0338 71.8886 33.0329 66.9249L33.031 58.1545H29.4759H25.9205L26.0111 67.9879ZM84.3796 72.6123V87.0702H94.307H104.234V84.4125V81.7548H97.8443H91.4543V78.2466V74.7385H97.1596H102.865V72.0808V69.4231H97.1596H91.4543V66.4465V63.4699H97.502H103.55V60.8122V58.1545H93.9646H84.3796V72.6123ZM144.013 58.5066C143.931 58.7049 141.789 65.1891 139.253 72.9155L134.641 86.9638L138.183 87.0225C140.132 87.0548 141.779 87.0314 141.845 86.9704C141.91 86.9096 142.439 85.2565 143.02 83.2973L144.076 79.7349L148.534 79.6773L152.992 79.6199L153.7 81.8035C154.089 83.0045 154.631 84.681 154.903 85.5287L155.399 87.0702H159.142C161.201 87.0702 162.883 86.9983 162.88 86.9107C162.877 86.8231 160.736 80.3409 158.123 72.506L153.372 58.2608L148.767 58.2032C144.611 58.1513 144.147 58.1808 144.013 58.5066ZM196.456 72.3429C193.896 80.1506 191.754 86.6583 191.696 86.8044C191.616 87.01 192.422 87.0702 195.257 87.0702H198.922L199.125 86.3791C199.236 85.9992 199.728 84.3249 200.218 82.6584L201.109 79.6286H205.577H210.045L210.672 81.5953C211.016 82.6771 211.554 84.3514 211.867 85.3161L212.436 87.0702H216.188C218.251 87.0702 219.94 87.0361 219.94 86.9945C219.94 86.9528 217.793 80.4708 215.169 72.5898L210.397 58.2608L205.755 58.204L201.112 58.147L196.456 72.3429ZM70.2683 63.4246C73.2299 64.6684 73.8901 68.1395 71.5753 70.2961C70.3354 71.4512 68.6452 71.8748 65.6088 71.7916L64.5248 71.7619V67.4166V63.0716L65.2665 62.9726C66.7342 62.7767 69.2719 63.0059 70.2683 63.4246ZM122.257 63.4758C124.662 64.7179 125.059 67.9054 123.03 69.6806C122.006 70.5765 120.672 70.9114 118.127 70.9114H115.873V66.9935C115.873 63.4454 115.911 63.0657 116.273 62.9672C116.492 62.9077 117.699 62.8792 118.954 62.9039C120.901 62.9424 121.386 63.0263 122.257 63.4758ZM239.462 63.5715C242.33 64.8787 243.981 68.182 243.981 72.6123C243.981 76.2706 243.084 78.7084 241.034 80.6245C239.598 81.9661 237.964 82.5091 235.89 82.3339C232.681 82.0628 230.325 79.7938 229.384 76.0692C228.874 74.0475 229.058 69.8166 229.734 68.0411C231.413 63.6263 235.482 61.7573 239.462 63.5715ZM207.424 69.6308C208.187 72.1424 208.861 74.3192 208.923 74.4678C209.01 74.6796 208.279 74.7385 205.562 74.7385C202.682 74.7385 202.111 74.6877 202.212 74.4412C202.454 73.8546 204.625 66.3051 205.027 64.6497L205.439 62.959L205.738 64.0118C205.902 64.5908 206.661 67.1194 207.424 69.6308ZM149.083 65.1708C149.305 66.0478 150.036 68.5284 150.707 70.6833C151.378 72.8381 151.891 74.6347 151.847 74.6757C151.803 74.7166 150.28 74.7236 148.463 74.6912L145.16 74.6322L146.243 71.0177C146.839 69.0297 147.555 66.4643 147.834 65.3171C148.114 64.1696 148.418 63.3085 148.51 63.4035C148.603 63.4983 148.86 64.2937 149.083 65.1708Z" fill="white"/>
</svg>
