<svg width="32" height="32" viewBox="0 0 32 32" fill="none" xmlns="http://www.w3.org/2000/svg">
<path fill-rule="evenodd" clip-rule="evenodd" d="M16.205 0.0259881C13.4595 0.26641 10.9188 1.27548 8.80916 2.96327C7.37446 4.1111 6.1495 5.60494 5.28091 7.26603C4.42076 8.91108 3.87462 10.8496 3.76386 12.6509L3.7428 12.9938L3.83731 12.5938C4.10723 11.4516 4.37746 10.6701 4.81852 9.75613C5.45409 8.43903 6.18166 7.38608 7.1709 6.35165C8.91965 4.52304 11.3405 3.2043 13.8528 2.71169C14.7918 2.5276 15.2463 2.48597 16.3186 2.48597C17.6419 2.48597 18.5988 2.61319 19.7425 2.94114C24.8477 4.40504 28.4429 8.71781 29.0117 14.0603C29.0783 14.685 29.0675 16.0901 28.9913 16.7265C28.6317 19.7317 27.258 22.5206 25.1319 24.562L24.936 24.75L25.1081 24.6366C25.6617 24.2714 26.6268 23.4112 27.2071 22.7656C29.1547 20.5988 30.2732 18.1461 30.6818 15.1458C30.7609 14.5649 30.7486 12.5489 30.662 11.9082C30.2481 8.84549 28.9548 6.16276 26.8702 4.04231C24.7328 1.86831 21.9732 0.495862 18.9379 0.0974442C18.2552 0.00781936 16.8361 -0.0292799 16.205 0.0259881ZM6.46909 2.94213C3.79845 4.95673 1.86243 7.63831 0.809322 10.7814C0.215914 12.5525 -0.0359037 14.2567 0.00409626 16.2314C0.0250053 17.2638 0.08402 17.8902 0.242694 18.7643C1.50841 25.7367 7.1017 31.0338 14.0998 31.8875C17.5895 32.3133 21.2601 31.5197 24.2762 29.6874C25.4592 28.9687 26.3601 28.255 27.3614 27.2435C29.8632 24.716 31.454 21.4392 31.903 17.8883C31.9335 17.6474 31.9678 17.2531 31.9792 17.0122L32 16.5742L31.9102 16.9741C31.4002 19.2445 30.5221 21.1934 29.222 22.9406C26.7196 26.3035 23.1401 28.39 18.8944 28.9607C18.2554 29.0466 16.1198 29.0588 15.4853 28.9802C11.8337 28.5278 8.65605 26.9466 6.18136 24.3507C3.92572 21.9847 2.4997 18.9233 2.08875 15.5648C2.00489 14.8791 1.99269 12.9565 2.06815 12.3081C2.34197 9.95519 3.08561 7.77631 4.26795 5.8628C4.88386 4.86596 5.48871 4.09731 6.35208 3.21424C6.67466 2.88431 6.93071 2.61433 6.92109 2.61433C6.91147 2.61433 6.70806 2.76185 6.46909 2.94213ZM13.7997 8.61588C12.8123 8.75072 11.9057 9.03018 11.0154 9.47408C8.23363 10.861 6.34484 13.4845 5.95852 16.498C5.88314 17.0861 5.87348 18.1942 5.93897 18.7453C6.18515 20.8175 7.10928 22.7313 8.57026 24.1944C10.3848 26.0118 12.7392 26.9494 15.277 26.8656C16.7143 26.8182 17.8845 26.5202 19.1157 25.8883C21.4558 24.6873 23.1942 22.5075 23.8358 19.9696C24.0481 19.1299 24.1013 18.6693 24.1002 17.6788C24.0992 16.6971 24.0496 16.2703 23.8388 15.4315C22.9235 11.7871 19.734 9.00341 16.0076 8.5965C15.5066 8.54176 14.2623 8.55269 13.7997 8.61588ZM16.3269 9.8872C17.9934 10.1856 19.3905 10.9181 20.58 12.1169C22.1154 13.6643 22.884 15.5275 22.8821 17.6978C22.8802 19.9302 22.0692 21.854 20.4816 23.3922C19.8002 24.0524 19.2294 24.4528 18.383 24.8642C15.9846 26.03 13.1452 25.8756 10.8615 24.4551C7.73981 22.5133 6.35924 18.6904 7.51598 15.1909C7.98033 13.7861 8.80916 12.5843 10.0118 11.572C11.1335 10.6279 12.6395 9.98741 14.1449 9.81434C14.6425 9.75712 15.8202 9.79647 16.3269 9.8872ZM13.6292 14.2317V16.2885H11.5648H9.50045V17.6978V19.1071H11.5648H13.6292V21.183V23.2589H14.9925H16.3559L16.3656 21.1925L16.3754 19.1262L18.4493 19.1163L20.5232 19.1065V17.6975V16.2885H18.4398H16.3565V14.2317V12.1748H14.9929H13.6292V14.2317Z" fill="#22C7B8"/>
</svg>
